<?xml version="1.0" standalone="no"?>
<!DOCTYPE svg PUBLIC "-//W3C//DTD SVG 20010904//EN"
 "http://www.w3.org/TR/2001/REC-SVG-20010904/DTD/svg10.dtd">
<svg version="1.0" xmlns="http://www.w3.org/2000/svg"
 width="1401.000000pt" height="1401.000000pt" viewBox="0 0 1401.000000 1401.000000"
 preserveAspectRatio="xMidYMid meet">
<metadata>
Created by potrace 1.14, written by Peter Selinger 2001-2017
</metadata>
<g transform="translate(0.000000,1401.000000) scale(0.100000,-0.100000)"
fill="#000000" stroke="none">
<path d="M6297 13236 c-54 -25 -77 -30 -183 -36 -66 -3 -126 -10 -134 -15 -31
-19 -197 -31 -315 -22 -171 12 -215 -1 -215 -63 l0 -28 -102 -6 c-57 -4 -150
-8 -208 -10 -195 -8 -395 -24 -422 -34 -33 -13 -38 -22 -40 -68 -1 -31 5 -43
39 -75 l41 -38 -29 -27 c-35 -33 -36 -55 -7 -102 21 -34 21 -35 2 -49 -10 -8
-30 -16 -44 -19 -14 -3 -35 -10 -48 -15 -13 -5 -41 -9 -63 -9 -53 0 -161 -30
-176 -49 -7 -8 -13 -36 -13 -63 0 -42 -3 -49 -29 -63 -20 -10 -31 -25 -36 -47
-12 -60 -16 -68 -35 -68 -10 0 -22 -4 -25 -10 -3 -5 -43 -27 -88 -49 -46 -21
-97 -51 -114 -65 -17 -14 -36 -26 -42 -26 -12 0 -15 -18 -12 -65 3 -38 47 -85
79 -85 24 0 25 -1 7 -20 -10 -11 -22 -20 -27 -20 -18 0 -144 -94 -208 -154
-158 -150 -229 -228 -240 -264 -18 -58 -89 -198 -111 -217 -10 -10 -19 -30
-19 -44 0 -14 -14 -53 -30 -85 -17 -32 -30 -64 -30 -70 -1 -6 -23 -33 -50 -61
-65 -66 -69 -101 -21 -183 25 -43 27 -52 16 -73 -7 -13 -18 -35 -24 -49 -6
-14 -15 -32 -20 -40 -5 -8 -14 -26 -20 -40 -7 -14 -25 -50 -41 -80 -16 -30
-29 -62 -29 -71 -1 -20 -37 -53 -49 -45 -6 3 -13 -16 -17 -45 -8 -61 4 -78 73
-104 58 -22 63 -30 46 -64 -26 -49 -27 -86 -4 -130 17 -35 19 -47 10 -74 -61
-188 -64 -225 -20 -276 18 -21 26 -39 21 -45 -16 -21 -55 -182 -72 -301 -17
-116 -14 -135 24 -166 19 -15 33 -36 32 -46 -6 -60 -19 -120 -28 -131 -6 -7
-10 -69 -10 -144 0 -99 -3 -135 -13 -146 -24 -23 -17 -75 17 -122 28 -38 31
-48 25 -90 -5 -36 -3 -49 7 -53 10 -4 17 -32 22 -89 4 -45 10 -87 14 -93 21
-28 42 -139 36 -189 l-7 -53 -75 5 c-41 3 -91 0 -111 -6 -20 -6 -57 -16 -80
-22 -30 -8 -60 -28 -98 -65 -30 -29 -54 -58 -54 -64 0 -6 -13 -39 -29 -73 -24
-51 -30 -76 -30 -133 0 -73 29 -260 48 -309 6 -16 18 -81 27 -144 14 -112 30
-179 60 -252 8 -19 16 -64 19 -99 3 -35 11 -74 18 -85 8 -12 17 -39 21 -61 4
-22 13 -60 21 -85 12 -37 65 -259 83 -350 2 -14 9 -30 14 -36 12 -16 58 -183
58 -214 0 -14 6 -34 13 -45 7 -11 20 -36 27 -55 8 -19 22 -46 32 -59 26 -34
23 -54 -13 -85 -17 -15 -38 -44 -46 -64 -15 -36 -79 -101 -179 -180 -27 -22
-66 -56 -87 -76 -21 -20 -42 -36 -46 -36 -15 0 -230 -205 -273 -260 -24 -30
-57 -68 -73 -85 -17 -16 -46 -59 -65 -95 -18 -36 -44 -79 -56 -95 -16 -22 -26
-54 -33 -115 -6 -46 -11 -89 -11 -95 0 -6 -9 -21 -20 -33 -11 -11 -29 -44 -40
-72 -11 -29 -27 -58 -34 -66 -8 -7 -17 -46 -21 -86 -4 -40 -12 -78 -17 -85 -5
-7 -12 -39 -15 -73 -3 -33 -9 -60 -13 -60 -10 0 -33 -75 -60 -195 -12 -55 -27
-111 -33 -124 -8 -16 -12 -128 -12 -360 0 -303 2 -338 18 -361 22 -32 22 -40
-5 -40 -26 0 -88 -21 -88 -31 0 -4 -26 -26 -57 -50 -32 -24 -74 -58 -93 -76
-19 -18 -44 -36 -55 -39 -11 -4 -45 -23 -75 -43 -30 -20 -86 -51 -125 -69 -38
-19 -81 -39 -94 -45 -14 -7 -34 -21 -45 -32 -12 -12 -48 -29 -81 -39 -33 -10
-67 -25 -75 -35 -20 -21 -65 -41 -95 -41 -14 0 -25 -4 -25 -8 0 -15 -55 -28
-84 -21 -32 9 -86 1 -86 -12 0 -5 8 -6 18 -2 12 4 10 -1 -8 -19 -17 -17 -29
-22 -37 -16 -8 6 -22 -2 -45 -27 -26 -28 -45 -38 -93 -48 -35 -7 -69 -21 -82
-33 -11 -12 -47 -30 -79 -39 -33 -9 -61 -20 -64 -24 -7 -9 -92 -41 -111 -41
-8 0 -30 -11 -50 -24 -19 -13 -66 -33 -104 -45 -37 -12 -73 -25 -79 -29 -6 -5
-31 -14 -56 -21 -25 -7 -59 -17 -76 -22 -17 -5 -44 -9 -62 -9 -17 0 -34 -4
-37 -10 -3 -5 -15 -10 -26 -10 -11 0 -37 -6 -59 -12 l-40 -13 0 -1137 0 -1138
7005 0 7005 0 0 1250 c0 688 -3 1250 -7 1250 -5 0 -19 10 -33 21 -14 11 -20
18 -14 15 6 -3 11 1 11 9 0 8 -4 12 -9 9 -18 -11 -249 22 -388 56 -19 4 -69
14 -110 20 -88 14 -140 24 -195 40 -80 23 -121 29 -187 30 -42 0 -82 7 -111
19 -25 11 -78 23 -119 26 -40 4 -93 14 -118 22 -25 9 -65 19 -90 24 -67 12
-147 33 -156 42 -4 4 -13 7 -21 7 -7 0 -32 12 -54 26 l-41 25 6 57 c4 31 9 86
12 122 3 36 9 70 13 75 15 20 40 101 55 179 10 47 16 130 16 211 0 79 4 136
10 140 14 8 13 221 -1 247 -14 26 -20 261 -10 398 4 62 4 115 -2 130 -5 14
-13 34 -17 45 -5 11 -11 80 -14 154 -3 74 -10 139 -16 145 -5 5 -10 22 -10 37
0 15 -4 31 -10 34 -5 3 -10 30 -10 59 0 28 -5 57 -11 63 -7 7 -14 55 -17 108
-4 78 -8 98 -22 105 -10 5 -20 26 -23 47 -19 128 -32 180 -53 211 -13 19 -24
40 -24 47 0 6 -9 20 -21 31 -11 10 -29 37 -40 59 -11 22 -28 54 -38 72 -27 47
-127 153 -145 153 -9 0 -21 9 -28 20 -7 11 -17 20 -22 20 -4 0 -24 14 -43 30
-18 17 -41 30 -51 30 -9 0 -57 31 -106 70 -49 38 -102 75 -117 82 -16 7 -29
16 -29 20 0 5 -5 8 -11 8 -12 0 -75 26 -99 41 -8 5 -22 12 -30 15 -8 3 -32 14
-53 25 -22 10 -51 19 -67 19 -15 0 -38 8 -50 18 -22 18 -22 19 -6 65 9 26 16
55 16 65 0 9 16 60 35 112 19 52 35 103 35 114 0 10 11 31 25 48 14 16 25 36
25 45 0 8 10 29 23 46 29 42 54 84 73 126 8 18 24 45 34 60 19 26 40 79 100
261 18 52 40 118 50 145 10 28 22 75 25 105 4 30 13 65 21 78 11 17 12 27 3
44 -6 12 -14 60 -16 107 -5 82 -15 115 -66 219 -15 31 -93 96 -137 115 -19 8
-55 20 -80 27 -25 7 -53 16 -62 21 -10 5 -29 9 -43 9 -15 0 -31 9 -41 25 -15
23 -15 31 -4 68 8 23 21 58 31 77 9 19 22 46 27 60 5 14 24 55 41 91 17 37 34
82 37 100 4 19 15 46 25 61 20 28 26 93 9 103 -5 3 -10 37 -10 76 0 39 -4 69
-10 69 -14 0 -12 84 3 99 9 9 12 71 12 239 1 158 5 248 15 297 11 49 15 137
15 293 0 201 -2 225 -17 236 -22 16 -23 30 -4 45 15 13 31 164 20 205 -3 14
-12 26 -20 26 -16 0 -19 36 -4 45 6 3 10 19 10 35 0 16 5 32 10 35 11 7 14
215 4 252 -3 12 -19 27 -35 33 -35 15 -38 44 -6 61 30 16 37 28 37 68 0 40
-37 104 -115 199 -30 36 -55 70 -55 75 0 5 12 21 26 34 23 21 26 30 21 69 -4
39 -12 57 -52 110 -7 9 -2 21 18 42 15 15 27 36 27 45 0 24 -37 96 -65 127
-30 33 -38 61 -26 93 7 17 7 46 -1 87 -11 66 -24 80 -108 117 -25 11 -58 32
-73 47 -15 14 -35 26 -43 26 -21 0 -75 28 -104 55 -28 26 -157 95 -178 95 -7
0 -33 9 -56 20 -66 30 -135 42 -197 35 l-56 -7 1 39 c1 42 -27 89 -59 99 -11
3 -40 26 -65 51 -83 82 -175 159 -228 192 -29 18 -62 45 -73 60 -18 23 -57 53
-139 108 -14 10 -38 28 -55 42 -16 13 -54 35 -84 48 -30 13 -73 37 -97 54 -23
16 -49 29 -57 29 -8 0 -25 8 -38 18 -13 11 -63 39 -112 63 -48 24 -102 52
-120 61 -34 18 -73 28 -207 53 -163 30 -195 37 -229 51 -18 8 -99 21 -180 29
-175 18 -256 34 -342 70 -74 31 -158 59 -209 69 -19 4 -62 13 -95 20 -33 8
-96 21 -140 31 -44 9 -102 23 -130 30 -27 8 -83 16 -123 18 l-73 4 -33 -40
-34 -41 -58 21 c-57 20 -110 29 -314 53 -52 6 -124 15 -158 20 -39 6 -109 5
-180 -1 -82 -8 -148 -7 -222 0 -206 22 -235 20 -303 -13z"/>
<path d="M13980 2529 c0 -5 4 -8 9 -5 5 4 12 0 14 -6 3 -8 6 -6 6 5 1 9 -6 17
-14 17 -8 0 -15 -5 -15 -11z"/>
</g>
</svg>
